<svg xmlns="http://www.w3.org/2000/svg" width="162.27" height="244.6" viewBox="0 0 162.27 244.6"><g transform="translate(-377.58 -119.2)"><path d="M511.64,363.8H377.58V141.53a22.359,22.359,0,0,1,22.33-22.33h90.15l49.79,49.79V335.58A28.251,28.251,0,0,1,511.64,363.8Zm-124.68-9.38H511.64a18.855,18.855,0,0,0,18.83-18.83V172.88l-44.29-44.3H399.92a12.966,12.966,0,0,0-12.95,12.95V354.42Z" fill="#fff"/><path d="M496.38,209.72V320.33H421.05V209.72h75.33m9.38-9.38H411.67V329.71h94.09V200.34Z" fill="#fff"/><path d="M463.4,329.71h-9.37V281.47H411.67v-9.38H463.4Z" fill="#fff"/><rect width="94.08" height="9.38" transform="translate(411.67 242.69)" fill="#fff"/><rect width="9.38" height="47.04" transform="translate(454.03 200.34)" fill="#fff"/></g></svg>