<svg xmlns="http://www.w3.org/2000/svg" width="92" height="46" viewBox="0 0 92 46"><path d="M44.675,18.845V32.817A4.986,4.986,0,0,0,45.749,36.4a5.009,5.009,0,0,0,3.585,1.146,8.26,8.26,0,0,0,4.8-1.432V43.85c-1.145,1-3.794,2.15-7.517,2.15-3.652,0-6.587-1.074-8.592-3.08a10.942,10.942,0,0,1-2.788-7.81V18.845ZM14.82,8.6a15.87,15.87,0,0,1,11.312,4.228,9.64,9.64,0,0,1,2.936,5.947l-7.947,1.794a5.342,5.342,0,0,0-1.36-2.938,6.768,6.768,0,0,0-4.868-1.794c-3.222,0-5.227,1.433-5.227,3.51,0,1.577,1.289,2.723,3.579,3.153l5.514,1.075a14.866,14.866,0,0,1,7.875,3.869A9.741,9.741,0,0,1,29.5,34.464a10.435,10.435,0,0,1-3.079,7.523C23.841,44.5,19.9,46,15.107,46c-4.94,0-9.308-1.719-12.028-4.584A10.168,10.168,0,0,1,0,35.11l8.165-1.794a4.985,4.985,0,0,0,1.432,3.3A7.441,7.441,0,0,0,15.11,38.69c3.293,0,5.3-1.29,5.3-3.51,0-1.794-1.217-2.79-3.938-3.439l-5.441-1.29a15.514,15.514,0,0,1-7.517-3.8A8.973,8.973,0,0,1,.931,20.064,10.461,10.461,0,0,1,4.3,12.324,15.391,15.391,0,0,1,14.82,8.6Zm60.426,0a17.432,17.432,0,0,1,12.53,4.8,16.108,16.108,0,0,1,4.009,7.094l-8.52,2.866a9.171,9.171,0,0,0-2.148-3.8,7.59,7.59,0,0,0-5.656-2.149,8.748,8.748,0,0,0-6.3,2.507,10.277,10.277,0,0,0-2.649,7.375,10.4,10.4,0,0,0,2.649,7.381,8.979,8.979,0,0,0,6.373,2.579,8.067,8.067,0,0,0,8.09-5.947L92,34.1a15.868,15.868,0,0,1-4.3,7.237,17.011,17.011,0,0,1-12.171,4.657,18.374,18.374,0,0,1-13.1-5.222A18.759,18.759,0,0,1,56.99,27.3a18.951,18.951,0,0,1,5.3-13.47A18.16,18.16,0,0,1,75.246,8.6ZM54.125,9.673v9.169h-9.45V9.673ZM44.675,0V9.673h-9.45V0Z" fill="#4f008c"/></svg>